<svg width="215" height="34" viewBox="0 0 215 34" fill="none" xmlns="http://www.w3.org/2000/svg">
<path d="M23.7 33.133C22.4137 33.1657 21.1397 32.8915 19.9988 32.3366C18.8578 31.7816 17.8876 30.9642 17.18 29.9617C14.9527 31.9046 12.0475 33.0309 9 33.133C3.54 33.133 0.58 29.5419 1.58 24.3931C2.34 20.5222 5.74 16.6419 6.69 13.5265C4.85 12.4818 2.12 11.7542 0.84 13.8902L0 13.4145C0.67 11.0733 2.29 9.5156 4.63 9.5156C6.97 9.5156 8.7 10.8121 10.93 9.6182H12.71C11.76 14.282 9.36 18.013 8.08 24.5423C7.3 28.5439 8.75 30.3628 11.2 30.3628C13.0168 30.1493 14.6843 29.3152 15.88 28.0215C14.902 25.741 14.4095 23.3047 14.43 20.8486C14.43 15.1774 17.22 9.19846 21.9 9.19846C24.3 9.19846 26.08 10.7562 26.08 14.4499C26.08 18.1436 23.68 23.8614 20.62 27.4525C20.7853 28.3076 21.2653 29.082 21.9773 29.6423C22.6893 30.2025 23.5886 30.5134 24.52 30.5213C28.98 30.5213 32.1 24.2812 32.1 18.5074C32.1 12.7336 29.42 12.9948 29.65 11.0453C29.6909 10.5552 29.9377 10.0999 30.3365 9.77853C30.7354 9.45714 31.2541 9.29561 31.78 9.32905C33.17 9.32905 35 10.9707 35 17.6306C35 26.1187 30.16 33.133 23.7 33.133ZM22.69 12.1273C21.3 12.1273 19.96 16.9124 19.79 21.856C19.7251 22.913 19.7451 23.9731 19.85 25.0274C21.9503 21.7854 23.2295 18.1389 23.59 14.3659C23.58 12.687 23.25 12.1273 22.69 12.1273ZM44.16 32.9185C43.5768 32.9749 42.9875 32.9109 42.4337 32.7313C41.8799 32.5516 41.3753 32.2605 40.9555 31.8788C40.5357 31.497 40.211 31.0338 40.0044 30.522C39.7978 30.0101 39.7144 29.4622 39.76 28.917C39.76 26.6317 42.94 15.2427 42.94 13.3679C42.94 12.4818 42.72 11.9594 41.88 11.9594C40.9406 12.1033 40.0675 12.5024 39.37 13.1067V11.493C40.818 10.2454 42.6998 9.52674 44.67 9.46896C45.2567 9.4198 45.8479 9.49061 46.4022 9.67647C46.9566 9.86232 47.4608 10.1587 47.8797 10.545C48.2987 10.9314 48.6222 11.3983 48.8278 11.9132C49.0333 12.4281 49.116 12.9787 49.07 13.5265C49.07 15.8117 45.89 27.1541 45.89 29.0196C45.89 29.9057 46.11 30.428 46.95 30.428C47.8767 30.2817 48.7439 29.9046 49.46 29.3367V30.8944C48.0175 32.1501 46.1324 32.87 44.16 32.9185ZM48.06 0.00146316C48.4958 -0.0116879 48.9295 0.0639433 49.3308 0.223089C49.7321 0.382235 50.0914 0.621068 50.3836 0.922956C50.6759 1.22484 50.894 1.58253 51.0229 1.97109C51.1518 2.35965 51.1884 2.76976 51.13 3.17284C51.0239 4.03258 50.5877 4.82741 49.902 5.4104C49.2164 5.99339 48.3276 6.32511 47.4 6.34422C46.9642 6.35737 46.5305 6.28174 46.1292 6.1226C45.7279 5.96345 45.3686 5.72462 45.0764 5.42273C44.7841 5.12084 44.566 4.76316 44.4371 4.37459C44.3082 3.98603 44.2716 3.57592 44.33 3.17284C44.4361 2.31311 44.8723 1.51827 45.558 0.935284C46.2436 0.352294 47.1324 0.0205779 48.06 0.00146316ZM60.44 28.0309C60.16 29.4393 60.33 30.4187 61.39 30.4187C62.3201 30.2826 63.1902 29.9043 63.9 29.3274L64 30.8944C62.552 32.1421 60.6702 32.8607 58.7 32.9185C55.24 32.9185 53.9 30.5773 54.41 27.6671L57.81 9.6182C58.94 3.59258 58.55 2.79974 55.09 2.79974L55.31 1.34464L65.74 0.0574287L60.44 28.0309ZM89.77 27.9842C89.49 29.3927 89.6 30.428 90.72 30.428C91.6518 30.2624 92.5187 29.8662 93.23 29.2808V30.8944C91.7916 32.1561 89.9039 32.877 87.93 32.9185C86.9324 32.9865 85.9437 32.7034 85.1588 32.1249C84.3739 31.5465 83.8499 30.7148 83.69 29.7938C82.8541 30.8266 81.7763 31.6676 80.5389 32.2528C79.3015 32.838 77.9372 33.1518 76.55 33.1704C69.92 33.1704 67.13 27.7137 68.41 21.1564C69.69 14.5991 75.66 9.2451 82.41 9.2451C84.0078 9.21414 85.5877 9.56408 87 10.2618L87.17 9.43165C88.49 3.01427 87.88 2.79974 84.42 2.79974L84.59 1.34464L95.07 0.0574287L89.77 27.9842ZM82.58 11.5957C78.73 11.5957 76.17 15.8584 75.16 21.1098C74.1 26.6224 74.77 30.4374 78.39 30.4374C80.84 30.4374 83.63 27.6391 84.47 23.3671L86.53 12.5471C85.3422 11.8748 83.9683 11.5439 82.58 11.5957ZM107.39 33.1797C99.64 33.1797 97.52 27.9749 98.47 22.9846L101 9.6182C102.17 3.58326 101.78 2.7531 98.32 2.7531L98.54 1.298L109 0.0574287L106.88 11.3904C108.508 10.0704 110.574 9.31579 112.73 9.25443C119.48 9.25443 122.65 14.6085 121.43 21.1658C120.21 27.723 114 33.1797 107.39 33.1797ZM111.01 11.7262C109.883 11.748 108.793 12.1017 107.895 12.7367C106.997 13.3716 106.337 14.2554 106.01 15.2614L104.45 23.6562C103.5 28.6465 105.4 30.6799 107.8 30.6799C111.31 30.6799 113.49 27.0421 114.66 21.0632C115.7 15.7091 114.75 11.7542 111 11.7542L111.01 11.7262ZM132 24.1879C132 28.1894 134.06 30.3254 138 30.3254C140 30.3254 142.91 29.0289 144.75 27.3126L145.53 28.9729C144.209 30.2795 142.62 31.3257 140.858 32.0499C139.095 32.774 137.195 33.1614 135.27 33.189C129.42 33.189 125.46 29.1315 125.46 23.6189C125.46 15.4573 132.71 9.26376 139.68 9.26376C143.92 9.26376 146.31 11.4464 146.31 13.9928C146.26 17.9477 142.24 22.3877 132 24.1879ZM139.19 11.6516C136.01 11.6516 132.95 15.9703 132.11 22.1545C138.52 20.6994 141.25 16.6419 141.31 14.0395C141.3 12.5844 140.57 11.6516 139.18 11.6516H139.19ZM169.06 32.9185C168.062 32.9865 167.074 32.7034 166.289 32.1249C165.504 31.5465 164.98 30.7148 164.82 29.7938C164.015 30.8259 162.964 31.6686 161.748 32.2548C160.533 32.841 159.188 33.1545 157.82 33.1704C151.3 33.1704 148.51 27.7137 149.82 21.1564C151.13 14.5991 157 9.25443 163.77 9.25443C165.206 9.24727 166.628 9.51389 167.95 10.0379H174.31L170.9 27.9842C170.62 29.3927 170.73 30.428 171.85 30.428C172.782 30.2624 173.649 29.8662 174.36 29.2808V30.8944C172.922 32.1561 171.034 32.877 169.06 32.9185ZM163.93 11.5957C160.19 11.5957 157.57 15.8584 156.57 21.1098C155.51 26.6224 156.24 30.4374 159.57 30.4374C162.13 30.4374 164.87 27.5272 165.65 23.3671L167.71 12.5471C166.589 11.8747 165.272 11.5424 163.94 11.5957H163.93ZM193.82 15.392C192.31 15.392 191.92 14.3007 191.48 13.1534C191.332 12.5751 190.972 12.0632 190.463 11.7057C189.954 11.3482 189.327 11.1674 188.69 11.1946C187.863 11.154 187.05 11.4033 186.409 11.8934C185.769 12.3835 185.349 13.0791 185.23 13.8436C185.06 15.2521 186.18 16.446 188.3 18.1623L191.14 20.3449C192.199 21.093 193.018 22.0965 193.51 23.2473C194.001 24.398 194.147 25.6521 193.93 26.8742C193.21 30.7732 189.75 33.1704 185.12 33.1704C179.54 33.1704 175.98 30.1016 176.37 28.0215C176.46 27.4743 176.756 26.9748 177.205 26.6125C177.654 26.2502 178.226 26.0487 178.82 26.0441C180.27 26.0441 180.82 27.0794 181.27 28.4319C181.558 29.2086 182.114 29.8747 182.85 30.3267C183.586 30.7787 184.461 30.9914 185.34 30.9317C186.209 30.9699 187.061 30.7041 187.731 30.1865C188.401 29.6689 188.839 28.9367 188.96 28.1335C189.18 26.2679 187.96 25.1207 185.67 23.1898L182.88 20.9046C181.896 20.2026 181.13 19.2698 180.659 18.2014C180.189 17.133 180.03 15.9672 180.2 14.823C180.7 12.3232 183.2 9.22645 188.95 9.22645C193.41 9.22645 196.2 11.5677 195.95 13.4425C195.923 13.9577 195.688 14.4443 195.294 14.8056C194.899 15.1668 194.373 15.3762 193.82 15.392ZM214.23 12.1273H208.82L206.2 25.9508C205.64 28.8144 206.09 30.1109 207.76 30.1109C208.65 30.1109 210.05 29.6445 212.05 27.723L212.16 29.7471C211.255 30.748 210.129 31.5546 208.858 32.1116C207.588 32.6687 206.204 32.963 204.8 32.9745C201.01 32.9745 199.11 30.4747 200.01 25.8482L202.63 12.1273H198.4L198.73 9.99131H203L204.12 3.80712H210.36L209.19 9.99131H214.6L214.23 12.1273Z" fill="url(#paint0_linear)"/>
<defs>
<linearGradient id="paint0_linear" x1="-5.61771e-07" y1="33.5793" x2="214.428" y2="2.57146" gradientUnits="userSpaceOnUse">
<stop stop-color="#4F90F0"/>
<stop offset="1" stop-color="#03E2FE"/>
</linearGradient>
</defs>
</svg>
