<svg width="50" height="50" viewBox="0 0 50 50" fill="none" xmlns="http://www.w3.org/2000/svg">
<path d="M25.2577 11.8359C18.1602 11.8359 12.4108 17.5456 12.4108 24.6035C12.4108 27.3791 13.3227 29.9961 14.8691 32.0976L13.2434 36.8557L18.1998 35.2697C20.222 36.6178 22.6804 37.3712 25.2974 37.3712C32.3949 37.3712 38.184 31.6614 38.184 24.6035C38.1443 17.5456 32.3553 11.8359 25.2577 11.8359ZM32.7914 29.8771C32.4742 30.7494 30.9278 31.5821 30.2537 31.6614C29.5797 31.7407 29.5797 32.2165 25.7335 30.7494C21.927 29.2427 19.5083 25.3965 19.3101 25.119C19.1118 24.8811 17.7637 23.0968 17.7637 21.2728C17.7637 19.4489 18.7153 18.5369 19.0721 18.18C19.429 17.8232 19.8255 17.7042 20.0634 17.7042C20.3013 17.7042 20.5789 17.7439 20.7771 17.7439C21.015 17.7439 21.2926 17.6249 21.6098 18.3783C21.927 19.1317 22.6804 20.9556 22.7597 21.1539C22.839 21.3521 22.9183 21.5504 22.7993 21.7883C22.6804 22.0262 22.6011 22.1848 22.4425 22.4227C22.2442 22.621 22.046 22.8985 21.8874 23.0571C21.6891 23.2554 21.4909 23.4536 21.7288 23.8105C21.9667 24.1674 22.72 25.3965 23.8303 26.3878C25.2577 27.6567 26.4869 28.0532 26.8438 28.2514C27.2006 28.4497 27.4385 28.41 27.6368 28.1721C27.8747 27.9342 28.5884 27.1015 28.8263 26.705C29.0642 26.3482 29.3418 26.3878 29.659 26.5068C30.0158 26.6257 31.8398 27.5377 32.2363 27.736C32.5932 27.9342 32.8707 28.0135 32.95 28.1721C33.069 28.2514 33.069 29.0048 32.7914 29.8771Z" fill="white"/>
<path d="M37.4306 0.0198364H12.5297C5.63045 0.0198364 0 5.65029 0 12.5496V37.4901C0 44.3497 5.63045 49.9802 12.5297 49.9802H37.4703C44.3695 49.9802 50 44.3497 50 37.4505V12.5496C49.9604 5.65029 44.3299 0.0198364 37.4306 0.0198364ZM25.2577 39.7899C22.5615 39.7899 20.0634 39.1158 17.843 37.8866L9.35765 40.5829L12.1332 32.4544C10.7454 30.1547 9.95242 27.4584 9.95242 24.6035C9.95242 16.1975 16.8121 9.41714 25.2577 9.41714C33.7034 9.41714 40.563 16.1975 40.563 24.6035C40.563 33.0095 33.7034 39.7899 25.2577 39.7899Z" fill="white"/>
</svg>
